<?xml version="1.0" standalone="no"?><!DOCTYPE svg PUBLIC "-//W3C//DTD SVG 1.1//EN" "http://www.w3.org/Graphics/SVG/1.1/DTD/svg11.dtd"><svg t="1595920419283" class="icon" viewBox="0 0 1024 1024" version="1.1" xmlns="http://www.w3.org/2000/svg" p-id="1186" xmlns:xlink="http://www.w3.org/1999/xlink" width="200" height="200"><defs><style type="text/css"></style></defs><path d="M707.657143 418.742857c0-113.371429-91.428571-204.8-204.8-204.8s-204.8 91.428571-204.8 204.8c0 58.514286 25.6 113.371429 67.657143 151.771429 7.314286 7.314286 18.285714 5.485714 25.6-1.828572s5.485714-18.285714-1.828572-25.6c-34.742857-31.085714-54.857143-76.8-54.857143-124.342857 0-93.257143 74.971429-168.228571 168.228572-168.228571s168.228571 74.971429 168.228571 168.228571-74.971429 168.228571-168.228571 168.228572c-95.085714 0-184.685714 45.714286-239.542857 124.342857-5.485714 9.142857-3.657143 20.114286 3.657143 25.6 3.657143 1.828571 7.314286 3.657143 10.971428 3.657143 5.485714 0 10.971429-1.828571 14.628572-7.314286 47.542857-67.657143 126.171429-107.885714 210.285714-107.885714 113.371429-1.828571 204.8-93.257143 204.8-206.628572zM649.142857 625.371429c-9.142857-5.485714-20.114286-1.828571-25.6 7.314285-5.485714 9.142857-1.828571 20.114286 7.314286 25.6 45.714286 25.6 82.285714 65.828571 104.228571 113.371429 3.657143 7.314286 9.142857 10.971429 16.457143 10.971428 1.828571 0 5.485714 0 7.314286-1.828571 9.142857-3.657143 12.8-14.628571 9.142857-23.771429-25.6-56.685714-65.828571-100.571429-118.857143-131.657142zM256 755.2c-9.142857-3.657143-20.114286 0-23.771429 9.142857-3.657143 9.142857 0 20.114286 9.142858 23.771429 9.142857 3.657143 20.114286 0 23.771428-9.142857 3.657143-7.314286 0-18.285714-9.142857-23.771429z" fill="#1A1A1A" p-id="1187"></path><path d="M618.057143 451.657143c3.657143-9.142857-3.657143-20.114286-12.8-21.942857-9.142857-3.657143-20.114286 3.657143-21.942857 12.8-10.971429 34.742857-43.885714 60.342857-80.457143 60.342857-36.571429 0-69.485714-25.6-80.457143-60.342857-3.657143-9.142857-12.8-14.628571-21.942857-12.8-9.142857 3.657143-14.628571 12.8-12.8 21.942857 14.628571 51.2 62.171429 85.942857 115.2 85.942857 53.028571 1.828571 100.571429-34.742857 115.2-85.942857zM725.942857 294.4c49.371429 31.085714 76.8 82.285714 76.8 140.8 0 56.685714-29.257143 109.714286-76.8 140.8-9.142857 5.485714-10.971429 16.457143-5.485714 25.6 3.657143 5.485714 9.142857 9.142857 14.628571 9.142857 3.657143 0 7.314286 0 9.142857-3.657143 58.514286-36.571429 95.085714-100.571429 95.085715-171.885714 0-69.485714-34.742857-133.485714-95.085715-171.885714-9.142857-5.485714-20.114286-3.657143-25.6 5.485714-5.485714 9.142857-1.828571 20.114286 7.314286 25.6zM879.542857 731.428571c-25.6-38.4-58.514286-69.485714-96.914286-93.257142-9.142857-5.485714-20.114286-1.828571-25.6 7.314285-5.485714 9.142857-1.828571 20.114286 7.314286 25.6 34.742857 20.114286 64 47.542857 85.942857 80.457143 3.657143 5.485714 9.142857 9.142857 14.628572 9.142857 3.657143 0 7.314286-1.828571 9.142857-3.657143 9.142857-5.485714 10.971429-16.457143 5.485714-25.6zM261.485714 605.257143c3.657143 1.828571 5.485714 3.657143 9.142857 3.657143 5.485714 0 12.8-3.657143 14.628572-9.142857 5.485714-9.142857 3.657143-20.114286-5.485714-25.6-49.371429-31.085714-76.8-82.285714-76.8-140.8 0-56.685714 29.257143-109.714286 76.8-140.8 9.142857-5.485714 10.971429-16.457143 5.485714-25.6-5.485714-9.142857-16.457143-10.971429-25.6-5.485715-58.514286 36.571429-95.085714 100.571429-95.085714 171.885715 1.828571 71.314286 36.571429 135.314286 96.914285 171.885714zM248.685714 645.485714c-5.485714-9.142857-16.457143-10.971429-25.6-7.314285-38.4 21.942857-73.142857 54.857143-96.914285 93.257142-5.485714 9.142857-3.657143 20.114286 5.485714 25.6 3.657143 1.828571 7.314286 3.657143 9.142857 3.657143 5.485714 0 10.971429-3.657143 14.628571-9.142857 21.942857-32.914286 51.2-60.342857 85.942858-80.457143 9.142857-5.485714 12.8-16.457143 7.314285-25.6z" fill="#1A1A1A" p-id="1188"></path></svg>