<?xml version="1.0" standalone="no"?><!DOCTYPE svg PUBLIC "-//W3C//DTD SVG 1.1//EN" "http://www.w3.org/Graphics/SVG/1.1/DTD/svg11.dtd"><svg t="1595920320185" class="icon" viewBox="0 0 1038 1024" version="1.1" xmlns="http://www.w3.org/2000/svg" p-id="911" xmlns:xlink="http://www.w3.org/1999/xlink" width="202.734375" height="200"><defs><style type="text/css"></style></defs><path d="M389.408451 490.366197h-100.957747a14.422535 14.422535 0 0 1 0-28.84507h100.957747a14.422535 14.422535 0 0 1 0 28.84507zM389.408451 620.169014h-100.957747a14.422535 14.422535 0 0 1 0-28.84507h100.957747a14.422535 14.422535 0 0 1 0 28.84507zM445.944789 439.887324a14.422535 14.422535 0 0 1-10.816902-4.903662L382.774085 374.985915H288.450704a14.422535 14.422535 0 0 1 0-28.84507h100.957747a14.422535 14.422535 0 0 1 10.816901 4.903662l56.536338 64.901408a14.422535 14.422535 0 0 1-10.816901 23.941409zM749.971831 620.169014H605.746479a14.422535 14.422535 0 0 1-11.249578-5.336338l-43.267605-54.517183a14.422535 14.422535 0 0 1 22.499155-18.028169l38.940845 49.03662H749.971831a14.422535 14.422535 0 0 1 0 28.84507zM634.591549 403.830986a14.422535 14.422535 0 0 1-11.538028-23.076056l43.267606-57.690141a14.422535 14.422535 0 0 1 11.538028-5.769014h86.535211a14.422535 14.422535 0 0 1 0 28.84507h-79.323943l-38.940846 51.921127a14.422535 14.422535 0 0 1-11.538028 5.769014z" fill="" p-id="912"></path><path d="M598.535211 425.464789m-21.633803 0a21.633803 21.633803 0 1 0 43.267606 0 21.633803 21.633803 0 1 0-43.267606 0Z" fill="" p-id="913"></path><path d="M519.211268 576.901408a100.957746 100.957746 0 1 1 48.603943-189.512112 14.422535 14.422535 0 0 1-14.422535 25.239436A72.112676 72.112676 0 1 0 591.323944 475.943662a14.422535 14.422535 0 0 1 28.84507 0 100.957746 100.957746 0 0 1-100.957746 100.957746zM776.797746 822.084507h-519.211267a14.422535 14.422535 0 0 1 0-28.84507h519.211267a14.422535 14.422535 0 0 1 0 28.84507z" fill="" p-id="914"></path><path d="M517.192113 807.661972a14.422535 14.422535 0 0 1-14.422536-14.422535v-86.535212a14.422535 14.422535 0 0 1 28.845071 0v86.535212a14.422535 14.422535 0 0 1-14.422535 14.422535z" fill="" p-id="915"></path><path d="M866.36169 721.126761H168.166761a14.422535 14.422535 0 0 1-14.422536-14.422536V253.548169a14.422535 14.422535 0 0 1 14.422536-14.422535h698.194929a14.422535 14.422535 0 0 1 14.422535 14.422535V706.704225a14.422535 14.422535 0 0 1-14.422535 14.422536z m-683.772394-28.845071h669.349859V267.970704H182.589296z" fill="" p-id="916"></path></svg>