<?xml version="1.0" standalone="no"?><!DOCTYPE svg PUBLIC "-//W3C//DTD SVG 1.1//EN" "http://www.w3.org/Graphics/SVG/1.1/DTD/svg11.dtd"><svg t="1595920380619" class="icon" viewBox="0 0 1024 1024" version="1.1" xmlns="http://www.w3.org/2000/svg" p-id="1044" xmlns:xlink="http://www.w3.org/1999/xlink" width="200" height="200"><defs><style type="text/css"></style></defs><path d="M222.8 788.7c-5 0-9-4-9-9V392.2c0-5 4-9 9-9s9 4 9 9v387.5c0 5-4.1 9-9 9zM800.4 788.7c-5 0-9-4-9-9V392.2c0-5 4-9 9-9s9 4 9 9v387.5c0 5-4.1 9-9 9zM805.6 213.5c-5 0-9-4-9-9 0-12.2-10-22.2-22.2-22.2H248.8c-12.2 0-22.2 10-22.2 22.2 0 5-4 9-9 9s-9-4-9-9c0-22.2 18-40.2 40.2-40.2h525.6c22.2 0 40.2 18 40.2 40.2 0 5-4.1 9-9 9z" fill="" p-id="1045"></path><path d="M866.6 353.2H156.5c-3 0-5.9-1.5-7.5-4.1-1.7-2.5-1.9-5.7-0.7-8.5l58.9-135c1.4-3.3 4.7-5.4 8.2-5.4h592.3c3.6 0 6.8 2.1 8.2 5.4l58.9 135c1.2 2.8 0.9 6-0.7 8.5-1.6 2.6-4.4 4.1-7.5 4.1z m-696.4-18h682.6l-51.1-117H221.3l-51.1 117z" fill="" p-id="1046"></path><path d="M197.9 404.8c-29.1 0-52.7-24.3-52.7-54.1 0-5 4-9 9-9s9 4 9 9c0 19.9 15.6 36.1 34.7 36.1 19.2 0 34.7-16.2 34.7-36.1 0-5 4-9 9-9s9 4 9 9c0 29.8-23.6 54.1-52.7 54.1z" fill="" p-id="1047"></path><path d="M285.4 404.8c-29.1 0-52.7-24.3-52.7-54.1 0-5 4-9 9-9s9 4 9 9c0 19.9 15.6 36.1 34.7 36.1 19.2 0 34.7-16.2 34.7-36.1 0-5 4-9 9-9s9 4 9 9c0 29.8-23.6 54.1-52.7 54.1z" fill="" p-id="1048"></path><path d="M378.2 404.8c-29.1 0-52.7-24.3-52.7-54.1 0-5 4-9 9-9s9 4 9 9c0 19.9 15.6 36.1 34.7 36.1 19.2 0 34.7-16.2 34.7-36.1 0-5 4-9 9-9s9 4 9 9c0 29.8-23.6 54.1-52.7 54.1z" fill="" p-id="1049"></path><path d="M465.7 404.8c-29.1 0-52.7-24.3-52.7-54.1 0-5 4-9 9-9s9 4 9 9c0 19.9 15.6 36.1 34.7 36.1 19.2 0 34.7-16.2 34.7-36.1 0-5 4-9 9-9s9 4 9 9c0 29.8-23.6 54.1-52.7 54.1z" fill="" p-id="1050"></path><path d="M555.3 404.8c-29.1 0-52.7-24.3-52.7-54.1 0-5 4-9 9-9s9 4 9 9c0 19.9 15.6 36.1 34.7 36.1s34.7-16.2 34.7-36.1c0-5 4-9 9-9s9 4 9 9c0.1 29.8-23.6 54.1-52.7 54.1z" fill="" p-id="1051"></path><path d="M642.8 404.8c-29.1 0-52.7-24.3-52.7-54.1 0-5 4-9 9-9s9 4 9 9c0 19.9 15.6 36.1 34.7 36.1 19.2 0 34.7-16.2 34.7-36.1 0-5 4-9 9-9s9 4 9 9c0 29.8-23.6 54.1-52.7 54.1z" fill="" p-id="1052"></path><path d="M730.3 404.8c-29.1 0-52.7-24.3-52.7-54.1 0-5 4-9 9-9s9 4 9 9c0 19.9 15.6 36.1 34.7 36.1s34.7-16.2 34.7-36.1c0-5 4-9 9-9s9 4 9 9c0 29.8-23.6 54.1-52.7 54.1z" fill="" p-id="1053"></path><path d="M822.9 404.8c-29.1 0-52.7-24.3-52.7-54.1 0-5 4-9 9-9s9 4 9 9c0 19.9 15.6 36.1 34.7 36.1 19.2 0 34.7-16.2 34.7-36.1 0-5 4-9 9-9s9 4 9 9c0 29.8-23.6 54.1-52.7 54.1zM244.6 348.3c-0.6 0-1.2-0.1-1.8-0.3-3.2-1-4.9-4.3-4-7.5L279.7 208c1-3.2 4.3-4.9 7.5-4 3.2 1 4.9 4.3 4 7.5L250.4 344c-0.8 2.6-3.2 4.3-5.8 4.3zM330.9 350.9c-0.5 0-1-0.1-1.5-0.2-3.2-0.8-5.2-4.1-4.4-7.3l33.7-135.1c0.8-3.2 4.1-5.2 7.3-4.4 3.2 0.8 5.2 4.1 4.4 7.3l-33.7 135.1c-0.7 2.8-3.1 4.6-5.8 4.6zM422 350.9c-0.3 0-0.5 0-0.8-0.1-3.3-0.4-5.6-3.5-5.1-6.7L434.2 209c0.4-3.3 3.5-5.6 6.7-5.1 3.3 0.4 5.6 3.5 5.1 6.7l-18.2 135.1c-0.3 3-2.9 5.2-5.8 5.2z" fill="" p-id="1054"></path><path d="M776.4 348.3c-2.6 0-4.9-1.7-5.7-4.2l-40.8-132.5c-1-3.2 0.8-6.5 4-7.5s6.5 0.8 7.5 4l40.8 132.5c1 3.2-0.8 6.5-4 7.5-0.7 0.1-1.3 0.2-1.8 0.2zM690.1 350.9c-2.7 0-5.1-1.8-5.8-4.5l-33.7-135.1c-0.8-3.2 1.2-6.5 4.4-7.3 3.2-0.8 6.5 1.2 7.3 4.4L696 343.5c0.8 3.2-1.2 6.5-4.4 7.3-0.5 0-1 0.1-1.5 0.1zM599 350.9c-3 0-5.5-2.2-5.9-5.2l-18.2-135.1c-0.4-3.3 1.9-6.3 5.1-6.7 3.3-0.4 6.3 1.9 6.7 5.1L605 344.1c0.4 3.3-1.9 6.3-5.1 6.7-0.3 0.1-0.6 0.1-0.9 0.1zM510.5 348.3h-0.3c-3.3-0.2-5.8-3-5.7-6.3l7.1-132.5c0.2-3.3 3-5.9 6.3-5.7 3.3 0.2 5.8 3 5.7 6.3l-7.1 132.5c-0.2 3.2-2.8 5.7-6 5.7zM813.5 830.8H209.6c-14 0-25.4-11.4-25.4-25.4V800c0-14 11.4-25.4 25.4-25.4h603.9c14 0 25.4 11.4 25.4 25.4v5.4c0 14-11.4 25.4-25.4 25.4z m-603.9-38.1c-4.1 0-7.4 3.3-7.4 7.4v5.4c0 4.1 3.3 7.4 7.4 7.4h603.9c4.1 0 7.4-3.3 7.4-7.4v-5.4c0-4.1-3.3-7.4-7.4-7.4H209.6z" fill="" p-id="1055"></path><path d="M386.1 788.1c-3.3 0-6-2.7-6-6V503.5H273.2v278.6c0 3.3-2.7 6-6 6s-6-2.7-6-6V497.5c0-3.3 2.7-6 6-6h118.9c3.3 0 6 2.7 6 6v284.6c0 3.3-2.7 6-6 6z" fill="" p-id="1056"></path><path d="M386.1 503.5H267.2c-3.3 0-6-2.7-6-6v-21.8c0-9.9 8.1-18 18-18h94.9c9.9 0 18 8.1 18 18v21.8c0 3.3-2.7 6-6 6z m-112.9-12h106.9v-15.8c0-3.3-2.7-6-6-6h-94.9c-3.3 0-6 2.7-6 6v15.8zM759.6 528.3H427.2c-3.3 0-6-2.7-6-6v-82.5c0-13.2 10.8-24 24-24h296.4c13.2 0 24 10.8 24 24v82.5c0 3.3-2.7 6-6 6z m-326.4-12h320.4v-76.5c0-6.6-5.4-12-12-12H445.2c-6.6 0-12 5.4-12 12v76.5z" fill="" p-id="1057"></path><path d="M427.2 787.1c-3.3 0-6-2.7-6-6V525.3c0-3.3 2.7-6 6-6s6 2.7 6 6v255.8c0 3.3-2.7 6-6 6zM759.6 787.1c-3.3 0-6-2.7-6-6V525.3c0-3.3 2.7-6 6-6s6 2.7 6 6v255.8c0 3.3-2.7 6-6 6zM729.2 511.8H457.6c-9.9 0-18-8.1-18-18v-43.3c0-9.9 8.1-18 18-18h271.6c9.9 0 18 8.1 18 18v43.3c0 9.9-8.1 18-18 18z m-271.6-67.4c-3.3 0-6 2.7-6 6v43.3c0 3.3 2.7 6 6 6h271.6c3.3 0 6-2.7 6-6v-43.3c0-3.3-2.7-6-6-6H457.6z" fill="" p-id="1058"></path></svg>