<?xml version="1.0" standalone="no"?><!DOCTYPE svg PUBLIC "-//W3C//DTD SVG 1.1//EN" "http://www.w3.org/Graphics/SVG/1.1/DTD/svg11.dtd"><svg t="1595923933276" class="icon" viewBox="0 0 1024 1024" version="1.1" xmlns="http://www.w3.org/2000/svg" p-id="3889" xmlns:xlink="http://www.w3.org/1999/xlink" width="200" height="200"><defs><style type="text/css"></style></defs><path d="M513.6384 893.5424h-0.2048c-38.2976-0.4096-75.776-11.264-108.1344-31.5392l-33.9968-21.0944c-127.5904-79.2576-203.776-215.4496-203.776-364.544V200.704l346.7264-86.2208L863.8464 200.704v277.7088c0 11.264-9.216 20.48-20.48 20.48s-20.48-9.216-20.48-20.48v-245.76l-308.6336-75.776-305.7664 75.9808v243.5072c0 134.7584 69.0176 258.048 184.32 329.728l33.9968 21.0944c26.0096 16.1792 56.1152 24.9856 87.04 25.3952 11.264 0.2048 20.48 9.4208 20.2752 20.6848a20.48 20.48 0 0 1-20.48 20.2752z" p-id="3890"></path><path d="M517.7344 893.5424a20.48 20.48 0 0 1-20.48-20.2752c-0.2048-11.264 9.0112-20.48 20.2752-20.6848 30.72-0.4096 60.8256-9.0112 87.04-25.3952l33.9968-21.0944c115.5072-71.68 184.32-194.9696 184.32-329.728V232.8576L517.12 156.8768l-308.6336 75.9808v245.76c0 11.264-9.216 20.48-20.48 20.48s-20.48-9.216-20.48-20.48V200.704l349.5936-86.2208L863.8464 200.704v275.456c0 149.0944-76.1856 285.4912-203.776 364.544l-33.9968 21.0944c-32.5632 20.0704-69.8368 30.9248-108.1344 31.5392l-0.2048 0.2048z" p-id="3891"></path><path d="M515.6864 504.4224c-67.7888 0-122.88-55.0912-122.88-122.88s55.0912-122.88 122.88-122.88 122.88 55.0912 122.88 122.88-55.0912 122.88-122.88 122.88z m0-204.8c-45.2608 0-81.92 36.6592-81.92 81.92s36.6592 81.92 81.92 81.92 81.92-36.6592 81.92-81.92-36.864-81.92-81.92-81.92z" p-id="3892"></path><path d="M518.144 750.1824c-11.264 0-20.48-9.216-20.48-20.48v-245.76c0-11.264 9.216-20.48 20.48-20.48s20.48 9.216 20.48 20.48v245.76c0 11.264-9.0112 20.48-20.48 20.48z" p-id="3893"></path><path d="M641.024 627.3024h-122.88c-11.264 0-20.48-9.216-20.48-20.48s9.216-20.48 20.48-20.48h122.88c11.264 0 20.48 9.216 20.48 20.48s-9.0112 20.48-20.48 20.48z" p-id="3894"></path></svg>