<?xml version="1.0" standalone="no"?><!DOCTYPE svg PUBLIC "-//W3C//DTD SVG 1.1//EN" "http://www.w3.org/Graphics/SVG/1.1/DTD/svg11.dtd"><svg t="1595920430259" class="icon" viewBox="0 0 1024 1024" version="1.1" xmlns="http://www.w3.org/2000/svg" p-id="1450" xmlns:xlink="http://www.w3.org/1999/xlink" width="200" height="200"><defs><style type="text/css"></style></defs><path d="M995.265306 989.413878H28.734694a20.897959 20.897959 0 0 1-20.062041-26.644898L84.636735 697.155918a20.897959 20.897959 0 0 1 19.853061-15.15102h20.897959a20.897959 20.897959 0 0 1 0 41.795918h-4.597551L56.42449 947.617959h911.15102l-64.052245-223.817143h-1.358367a20.897959 20.897959 0 0 1 0-41.795918H919.510204a20.897959 20.897959 0 0 1 20.062041 15.15102l76.068571 265.613062a20.897959 20.897959 0 0 1-20.06204 26.644898z" p-id="1451"></path><path d="M195.918367 839.157551a20.897959 20.897959 0 0 1-20.897959-20.897959v-579.918368a20.897959 20.897959 0 0 1 5.955919-14.524081l177.632653-182.857143a20.897959 20.897959 0 0 1 14.94204-6.373878h459.755102a20.897959 20.897959 0 0 1 20.89796 20.89796l-5.22449 757.55102a20.897959 20.897959 0 0 1-20.897959 20.897959l-632.163266 5.22449z m20.89796-592.352653v550.347755l590.471836-4.91102 4.911021-715.964082H382.432653z" p-id="1452"></path><path d="M368.326531 269.688163h-156.734694a20.897959 20.897959 0 0 1 0-41.795918h135.836734v-146.285714a20.897959 20.897959 0 1 1 41.795919 0v167.183673a20.897959 20.897959 0 0 1-20.897959 20.897959zM457.142857 510.014694a20.897959 20.897959 0 0 1-14.733061-6.164898l-94.040816-94.040816a20.897959 20.897959 0 0 1 29.570612-29.570613l80.039184 80.039184 194.14204-174.811429a20.897959 20.897959 0 1 1 28.003266 31.346939l-208.979592 188.081633a20.897959 20.897959 0 0 1-14.001633 5.12zM770.612245 708.545306h-512a10.44898 10.44898 0 0 1 0-20.897959h512a10.44898 10.44898 0 0 1 0 20.897959z" p-id="1453"></path></svg>